# xmcd
#
# Track frame offsets:
#	150
#	21225
#	39722
#	58052
#	77140
#	121102
#	136185
#	156125
#	172167
#	193940
#	218895
#	236780
#	260042
#	284332
#	305475
#	325375
#
# Disc length: 4596 seconds
#
# Revision: 22
# Processed by: cddbd v1.5.1PL0 Copyright (c) Steve Scherf et al.
# Submitted via: MusicWizard 7.2.0
#
DISCID=f411f210
DTITLE=Eros Ramazzotti - Eros
DYEAR=1997
DGENRE=Pop
TTITLE0=Terra Promessa
TTITLE1=Una Storia Importante
TTITLE2=Adesso Tu
TTITLE3=Ma Che Bello Questo Amore
TTITLE4=Musica E' (Duetto Con Andrea Bocelli)
TTITLE5=Occhi Di Ssperanza
TTITLE6=Piu' Bella Cosa
TTITLE7=Memorie
TTITLE8=Cose Della Vita (Duetto Con Tina Turner)
TTITLE9=L' Aurora
TTITLE10=Ancora Un Minuto Di Sole
TTITLE11=Quasi Amore
TTITLE12=Se Bastasse Una Canzone
TTITLE13=Un' Altra Te
TTITLE14=Favola
TTITLE15=Quanto Amore Sei
EXTD=
EXTT0=
EXTT1=
EXTT2=
EXTT3=
EXTT4=
EXTT5=
EXTT6=
EXTT7=
EXTT8=
EXTT9=
EXTT10=
EXTT11=
EXTT12=
EXTT13=
EXTT14=
EXTT15=
PLAYORDER=
